<svg width="74" height="61" viewBox="0 0 74 61" fill="none" xmlns="http://www.w3.org/2000/svg">
<path d="M44.922 22.0487H46.0996C46.8859 22.0487 47.5944 21.5865 47.902 20.8728C48.2062 20.1703 48.0627 19.3529 47.5357 18.7921L44.922 22.0487ZM44.922 22.0487L44.3617 21.3969L43.6033 22.0487V23.0487H44.4629L50.3542 29.9022C50.858 30.4889 50.966 31.2855 50.6376 31.9802L44.922 22.0487ZM52.3488 41.5894L52.3491 41.5897C52.6058 41.8802 52.6591 42.2586 52.4994 42.6021C52.3426 42.938 51.9879 43.1687 51.5907 43.1687H39.7652H38.7652V44.1687V46.2813V46.5684L38.9175 46.8118L41.5017 50.941C41.6004 51.1883 41.4186 51.4645 41.146 51.4645H32.8544C32.5818 51.4645 32.4 51.1883 32.4987 50.941L35.0829 46.8118L35.2352 46.5684V46.2813V44.1687V43.1687H34.2352H22.4097C22.0123 43.1687 21.6574 42.9378 21.5008 42.6015L20.5943 43.0238L21.501 42.6021C21.3413 42.2586 21.3946 41.8802 21.6513 41.5897L21.6516 41.5894L28.5545 33.7705L30.0217 32.1087H27.8049H25.1583C24.7596 32.1087 24.4279 31.8943 24.2673 31.5548C24.1084 31.2169 24.158 30.8426 24.4045 30.5548C24.4045 30.5547 24.4046 30.5547 24.4046 30.5546L31.1554 22.7006L32.5752 21.0487H30.3971H27.9008C27.5071 21.0487 27.1628 20.8179 27.0158 20.477L27.0156 20.4764C26.8706 20.1405 26.938 19.7478 27.1925 19.477L27.193 19.4765L36.7218 9.32555L36.7226 9.32466C36.7698 9.27426 36.8654 9.22314 37.0005 9.22314C37.1356 9.22314 37.2306 9.27425 37.2772 9.32406L37.2786 9.32551L46.8065 19.4765L46.807 19.477C47.0622 19.7484 47.1292 20.1409 46.9844 20.4754L46.9837 20.477C46.8365 20.8184 46.4928 21.0487 46.0996 21.0487H43.6033H41.425L42.845 22.7006L49.5955 30.5536C49.8436 30.8425 49.8923 31.2169 49.7335 31.5529L49.7331 31.5538C49.5727 31.8941 49.2403 32.1087 48.8421 32.1087H46.1955H43.9787L45.4459 33.7705L52.3488 41.5894ZM47.5295 33.1087L46.9452 32.4469L46.1955 33.1087V34.1087H47.0784L53.0985 40.9276C53.6169 41.5143 53.7344 42.3178 53.4061 43.0238L47.5295 33.1087Z" fill="white" stroke="#BCCFA7" stroke-width="2"/>
<path d="M56.8322 22.0487H58.0098C58.7961 22.0487 59.5046 21.5865 59.8122 20.8728C60.1163 20.1703 59.9729 19.3529 59.4458 18.7921L56.8322 22.0487ZM56.8322 22.0487L56.2718 21.3969L55.5135 22.0487V23.0487H56.3731L62.2644 29.9022C62.7681 30.4889 62.8761 31.2855 62.5478 31.9802L56.8322 22.0487ZM64.259 41.5894L64.2593 41.5897C64.5159 41.8802 64.5693 42.2586 64.4095 42.6021C64.2528 42.938 63.8981 43.1687 63.5009 43.1687H51.6753H50.6753V44.1687V46.2813V46.5684L50.8277 46.8118L53.4118 50.941C53.5106 51.1883 53.3288 51.4645 53.0561 51.4645H44.7646C44.4919 51.4645 44.3101 51.1883 44.4089 50.941L46.993 46.8118L47.1454 46.5684V46.2813V44.1687V43.1687H46.1454H34.3198C33.9224 43.1687 33.5676 42.9378 33.4109 42.6015L32.5045 43.0238L33.4112 42.6021C33.2514 42.2586 33.3048 41.8802 33.5614 41.5897L33.5617 41.5894L40.4647 33.7705L41.9319 32.1087H39.715H37.0684C36.6697 32.1087 36.338 31.8943 36.1775 31.5548C36.0185 31.2169 36.0681 30.8426 36.3146 30.5548C36.3147 30.5547 36.3147 30.5547 36.3148 30.5546L43.0656 22.7006L44.4854 21.0487H42.3072H39.8109C39.4173 21.0487 39.0729 20.8179 38.926 20.477L38.9257 20.4764C38.7807 20.1405 38.8482 19.7478 39.1027 19.477L39.1031 19.4765L48.632 9.32555L48.6328 9.32466C48.68 9.27426 48.7756 9.22314 48.9107 9.22314C49.0458 9.22314 49.1408 9.27425 49.1874 9.32406L49.1887 9.32551L58.7167 19.4765L58.7172 19.477C58.9723 19.7484 59.0394 20.1409 58.8945 20.4754L58.8938 20.477C58.7467 20.8184 58.4029 21.0487 58.0098 21.0487H55.5135H53.3352L54.7552 22.7006L61.5057 30.5536C61.7538 30.8425 61.8025 31.2169 61.6437 31.5529L61.6433 31.5538C61.4829 31.8941 61.1504 32.1087 60.7523 32.1087H58.1057H55.8889L57.356 33.7705L64.259 41.5894ZM59.4396 33.1087L58.8553 32.4469L58.1057 33.1087V34.1087H58.9885L65.0086 40.9276C65.5271 41.5143 65.6446 42.3178 65.3162 43.0238L59.4396 33.1087Z" fill="white" stroke="#BCCFA7" stroke-width="2"/>
<path d="M33.0114 22.3611H34.189C34.9753 22.3611 35.6838 21.8988 35.9914 21.1851C36.2955 20.4827 36.1521 19.6653 35.625 19.1045L33.0114 22.3611ZM33.0114 22.3611L32.451 21.7092L31.6927 22.3611V23.3611H32.5523L38.4436 30.2146C38.9473 30.8013 39.0553 31.5979 38.727 32.2926L33.0114 22.3611ZM40.4382 41.9018L40.4385 41.9021C40.6951 42.1926 40.7485 42.571 40.5887 42.9144C40.432 43.2504 40.0773 43.481 39.6801 43.481H27.8545H26.8545V44.481V46.5937V46.8808L27.0069 47.1242L29.591 51.2533C29.6898 51.5007 29.508 51.7769 29.2353 51.7769H20.9438C20.6711 51.7769 20.4893 51.5007 20.5881 51.2533L23.1722 47.1242L23.3246 46.8808V46.5937V44.481V43.481H22.3246H10.499C10.1016 43.481 9.74677 43.2501 9.59013 42.9139L8.68366 43.3362L9.59038 42.9144C9.43063 42.571 9.48396 42.1926 9.74062 41.9021L9.74091 41.9018L16.6439 34.0829L18.1111 32.4211H15.8942H13.2476C12.8489 32.4211 12.5172 32.2067 12.3567 31.8672C12.1977 31.5292 12.2473 31.155 12.4938 30.8672C12.4939 30.8671 12.4939 30.867 12.494 30.867L19.2448 23.013L20.6646 21.3611H18.4864H15.9901C15.5965 21.3611 15.2521 21.1303 15.1052 20.7893L15.1049 20.7888C14.9599 20.4528 15.0274 20.0601 15.2819 19.7894L15.2823 19.7889L24.8112 9.63792L24.812 9.63704C24.8592 9.58664 24.9548 9.53552 25.0899 9.53552C25.225 9.53552 25.32 9.58663 25.3666 9.63644L25.3679 9.63789L34.8959 19.7889L34.8964 19.7894C35.1515 20.0608 35.2186 20.4532 35.0737 20.7878L35.073 20.7893C34.9259 21.1308 34.5821 21.3611 34.189 21.3611H31.6927H29.5144L30.9344 23.013L37.6849 30.866C37.933 31.1549 37.9817 31.5293 37.8229 31.8653L37.8225 31.8662C37.6621 32.2064 37.3296 32.4211 36.9315 32.4211H34.2849H32.0681L33.5352 34.0829L40.4382 41.9018ZM35.6188 33.4211L35.0345 32.7592L34.2849 33.4211V34.4211H35.1677L41.1878 41.2399C41.7063 41.8266 41.8238 42.6302 41.4954 43.3362L35.6188 33.4211Z" fill="white" stroke="#BCCFA7" stroke-width="2"/>
</svg>
