<svg width="64" height="64" viewBox="0 0 64 64" fill="none" xmlns="http://www.w3.org/2000/svg">
<g clip-path="url(#clip0_136_33)">
<path d="M52.233 26.1151C51.3206 25.6428 49.9457 25.7909 49.0828 27.2322C49.0803 27.2363 49.0779 27.2404 49.0755 27.2445L45.8878 32.786C44.967 32.3122 43.8058 32.5457 43.1453 33.3936C42.9171 33.6866 42.1632 34.6903 41.3653 35.7529C40.9278 36.3354 40.4905 36.9177 40.1528 37.3654C39.88 37.7271 39.952 38.2415 40.3136 38.5143C40.6754 38.7873 41.1895 38.7152 41.4623 38.3535C41.8006 37.905 42.2387 37.3217 42.6769 36.7383C43.4356 35.7282 44.22 34.6836 44.4393 34.402C44.6265 34.1616 44.9858 34.115 45.2242 34.3005C45.4012 34.4381 45.3917 34.775 45.1961 35.3019C44.5 37.1772 43.6349 39.0513 42.8227 40.4434C42.5945 40.8348 42.7266 41.3371 43.1179 41.5654C43.5093 41.7937 44.0115 41.6615 44.2396 41.2702C45.0972 39.8 46.0063 37.8328 46.7339 35.8729C46.9863 35.193 47.0321 34.6487 46.9585 34.2148L50.4935 28.0695C50.7792 27.5956 51.1565 27.4051 51.4792 27.5721C51.7008 27.6868 51.8886 27.9816 51.6898 28.4352C51.4505 28.9639 50.9354 30.2726 50.2837 31.9282C49.421 34.1195 48.3477 36.8467 47.4404 38.9688C46.3352 41.5541 45.9097 42.1785 43.9368 44.1084L40.7929 47.1841C40.5854 47.3871 40.5006 47.6848 40.57 47.9668L41.6652 52.4144C41.6666 52.4198 41.6679 52.4252 41.6694 52.4306C41.6874 52.4977 41.649 52.5541 41.629 52.57H35.2183C34.6093 52.57 34.4785 52.3963 34.3424 52.0277C32.7334 47.6692 34.393 45.1677 36.0187 43.4752C36.3325 43.1485 36.322 42.6292 35.9954 42.3154C35.6687 42.0015 35.1495 42.0119 34.8357 42.3387C33.6378 43.5858 32.8453 44.8592 32.4193 46.222C32.2445 45.6664 32.0091 45.1249 31.7121 44.5961C30.5972 42.6108 28.7851 41.1563 27.329 39.9876C26.4822 39.3079 25.6824 38.666 25.2319 38.0876C25.0127 37.8062 24.2289 36.7624 23.4708 35.7531C22.6728 34.6904 21.919 33.6867 21.6907 33.3937C21.0303 32.5458 19.8691 32.3122 18.9482 32.7861L15.7605 27.2445C15.7581 27.2404 15.7556 27.2363 15.7532 27.2322C14.8903 25.7909 13.5153 25.6428 12.6028 26.1151C11.6832 26.5912 11.0595 27.7696 11.6469 29.1008C11.648 29.1034 11.6492 29.1059 11.6503 29.1085C11.8084 29.4569 12.1261 30.2517 12.3853 30.9051C12.5523 31.3263 13.0293 31.5323 13.4501 31.3652C13.8711 31.1981 14.0771 30.7212 13.91 30.3001C13.5116 29.2955 13.2828 28.737 13.1462 28.4352C12.9476 27.9817 13.1353 27.6869 13.3569 27.5722C13.6798 27.4052 14.057 27.5958 14.3427 28.0696L17.8776 34.2148C17.804 34.6488 17.8498 35.1931 18.1023 35.873C18.8298 37.8328 19.7389 39.8 20.5965 41.2702C20.8248 41.6615 21.327 41.7937 21.7182 41.5654C22.1094 41.3371 22.2416 40.8347 22.0133 40.4434C21.2012 39.0512 20.3361 37.1772 19.6399 35.3019C19.4443 34.775 19.4349 34.4381 19.612 34.3004C19.8501 34.1153 20.2096 34.1617 20.3967 34.402C20.616 34.6836 21.4006 35.7282 22.1592 36.7384C22.9567 37.8001 23.7098 38.8029 23.9378 39.0957C24.5062 39.8255 25.3786 40.5258 26.3023 41.2671C29.2541 43.6363 32.5999 46.3218 30.4935 52.0276C30.3574 52.3962 30.2267 52.5699 29.6177 52.5699H23.207C23.187 52.5541 23.1486 52.4976 23.1665 52.4305C23.168 52.4252 23.1694 52.4198 23.1707 52.4143L24.266 47.9667C24.3354 47.6847 24.2506 47.3871 24.0431 47.184L20.8991 44.1083C18.9264 42.1785 18.5007 41.554 17.3956 38.9687C17.1684 38.4376 16.9133 37.8264 16.6369 37.1523C16.4651 36.7331 15.986 36.5325 15.5669 36.7045C15.1478 36.8764 14.9474 37.3555 15.1192 37.7747C15.4026 38.466 15.6539 39.0675 15.8873 39.6136C17.0791 42.4017 17.6209 43.1963 19.7522 45.2811L22.5612 48.0292L21.5796 52.015C21.4412 52.5437 21.5571 53.1177 21.8907 53.5526C22.2114 53.9706 22.6871 54.2104 23.1957 54.2104H29.6176C30.8413 54.2104 31.6311 53.6823 32.0323 52.5957C32.184 52.1847 32.3123 51.7815 32.4187 51.385C32.5244 51.7831 32.6526 52.1868 32.8036 52.5957C33.2047 53.6823 33.9946 54.2104 35.2182 54.2104H41.6401C42.1487 54.2104 42.6244 53.9706 42.9452 53.5526C43.2787 53.1178 43.3947 52.544 43.2563 52.0153L42.2747 48.0293L45.0837 45.2812C47.2149 43.1963 47.7567 42.4018 48.9486 39.6137C49.8651 37.4698 50.9433 34.7303 51.8098 32.5291C52.4294 30.9553 52.9643 29.5961 53.1856 29.1082C53.1867 29.1057 53.1878 29.1031 53.1889 29.1006C53.7765 27.7696 53.1528 26.5912 52.233 26.1151Z" fill="#BCCFA7"/>
<path d="M15.3222 34.0364C15.3222 33.5833 14.955 33.2161 14.502 33.2161H14.5015C14.0485 33.2161 13.6816 33.5833 13.6816 34.0364C13.6816 34.4894 14.0491 34.8567 14.502 34.8567C14.955 34.8567 15.3222 34.4894 15.3222 34.0364Z" fill="#BCCFA7"/>
<path d="M38.2046 39.6573C37.7517 39.6573 37.3848 40.0246 37.3848 40.4777C37.3848 40.9307 37.7522 41.298 38.2052 41.298C38.6582 41.298 39.0253 40.9307 39.0253 40.4777C39.0253 40.0246 38.6581 39.6573 38.2052 39.6573H38.2046Z" fill="#BCCFA7"/>
<path d="M19.2969 25.8036H26.7754C26.7117 26.1471 26.6783 26.4998 26.6783 26.8585V28.2647C26.6783 28.7177 27.0455 29.085 27.4984 29.085H37.3404C37.7933 29.085 38.1606 28.7177 38.1606 28.2647V26.8585C38.1606 26.4999 38.127 26.1472 38.0634 25.8036H45.542C45.9949 25.8036 46.3622 25.4363 46.3622 24.9833V23.5771C46.3622 21.6655 45.428 19.9192 43.8787 18.8532C44.118 18.3691 44.2531 17.8246 44.2531 17.249V15.8428C44.2531 13.8397 42.6238 12.21 40.621 12.21C38.6182 12.21 36.9889 13.8396 36.9889 15.8428V17.2491C36.9889 17.8256 37.1244 18.3709 37.3644 18.8556C36.8599 19.2057 36.4176 19.6321 36.0516 20.1146V19.1242C36.0516 17.121 34.4223 15.4913 32.4194 15.4913C30.4166 15.4913 28.7872 17.1209 28.7872 19.1242V20.1148C28.4212 19.6322 27.9789 19.2057 27.4743 18.8556C27.7143 18.3709 27.8499 17.8257 27.8499 17.2491V15.8428C27.8499 13.8397 26.2205 12.21 24.2177 12.21C22.2149 12.21 20.5855 13.8396 20.5855 15.8428V17.2491C20.5855 17.8247 20.7207 18.3691 20.9599 18.8533C19.4106 19.9191 18.4766 21.6648 18.4766 23.5772V24.9833C18.4767 25.4363 18.8439 25.8036 19.2969 25.8036ZM36.5202 27.4444H28.3186V26.8585C28.3186 25.4707 29.0481 24.1618 30.2089 23.4101C30.8217 23.8818 31.5881 24.1632 32.4194 24.1632C33.2511 24.1632 34.018 23.8815 34.6309 23.4093C34.8081 23.5229 34.9744 23.6489 35.1297 23.7853C35.1554 23.8114 35.1824 23.836 35.2113 23.8585C35.6345 24.2505 35.9674 24.724 36.1917 25.2488C36.2028 25.2814 36.216 25.3129 36.231 25.3435C36.4192 25.8164 36.5201 26.3286 36.5201 26.8584V27.4444H36.5202ZM44.7219 23.5772V24.163H37.4907C37.2466 23.7045 36.9402 23.2802 36.5787 22.9019C36.7702 21.7689 37.4404 20.7569 38.4117 20.1297C39.0243 20.6008 39.7903 20.8818 40.621 20.8818C41.4528 20.8818 42.2195 20.6001 42.8325 20.128C44.0081 20.8819 44.7219 22.1669 44.7219 23.5772ZM38.6291 15.8428C38.6291 14.7443 39.5227 13.8506 40.621 13.8506C41.7192 13.8506 42.6127 14.7443 42.6127 15.8428V17.2491C42.6127 18.3476 41.7192 19.2413 40.621 19.2413C39.5226 19.2413 38.6291 18.3476 38.6291 17.2491V15.8428ZM30.4276 19.1242C30.4276 18.0257 31.3211 17.1319 32.4194 17.1319C33.5177 17.1319 34.4113 18.0257 34.4113 19.1242V20.5304C34.4113 21.6289 33.5177 22.5226 32.4194 22.5226C31.3211 22.5226 30.4276 21.6289 30.4276 20.5304V19.1242ZM22.226 15.8428C22.226 14.7443 23.1196 13.8506 24.2179 13.8506C25.3161 13.8506 26.2097 14.7443 26.2097 15.8428V17.2491C26.2097 18.3476 25.3161 19.2413 24.2179 19.2413C23.1196 19.2413 22.226 18.3476 22.226 17.2491V15.8428ZM20.1171 23.5772C20.1171 22.1664 20.8308 20.8818 22.0064 20.1281C22.6194 20.6002 23.3861 20.8819 24.2179 20.8819C25.0486 20.8819 25.8146 20.6009 26.4272 20.1298C27.3983 20.7569 28.0685 21.769 28.2602 22.9017C27.8985 23.28 27.592 23.7045 27.3479 24.1631H20.1171V23.5772H20.1171Z" fill="#BCCFA7"/>
</g>
<defs>
<clipPath id="clip0_136_33">
<rect width="42" height="42" fill="white" transform="translate(11 11)"/>
</clipPath>
</defs>
</svg>
