<svg width="11" height="19" viewBox="0 0 11 19" fill="none" xmlns="http://www.w3.org/2000/svg">
<path d="M9.95708 0.255802L7.5585 0.251953C4.86377 0.251953 3.12232 2.03864 3.12232 4.80402V6.90283H0.71065C0.502253 6.90283 0.333496 7.07178 0.333496 7.28018V10.3211C0.333496 10.5295 0.502446 10.6983 0.71065 10.6983H3.12232V18.3715C3.12232 18.5799 3.29108 18.7487 3.49947 18.7487H6.64602C6.85441 18.7487 7.02317 18.5797 7.02317 18.3715V10.6983H9.84297C10.0514 10.6983 10.2201 10.5295 10.2201 10.3211L10.2213 7.28018C10.2213 7.18011 10.1814 7.08429 10.1108 7.01347C10.0402 6.94266 9.944 6.90283 9.84394 6.90283H7.02317V5.12364C7.02317 4.26849 7.22695 3.83438 8.3409 3.83438L9.9567 3.8338C10.1649 3.8338 10.3337 3.66485 10.3337 3.45664V0.63296C10.3337 0.424946 10.1651 0.256187 9.95708 0.255802Z" fill="white"/>
</svg>
