<svg width="64" height="64" viewBox="0 0 64 64" fill="none" xmlns="http://www.w3.org/2000/svg">
<g clip-path="url(#clip0_136_45)">
<path d="M20.3369 17.2565H23.5677V20.4872H20.3369V17.2565Z" fill="#BCCFA7"/>
<path d="M20.3369 23.718H23.5677V26.9488H20.3369V23.718Z" fill="#BCCFA7"/>
<path d="M20.3369 30.1804H23.5677V33.4112H20.3369V30.1804Z" fill="#BCCFA7"/>
<path d="M20.3369 36.6411H23.5677V39.8719H20.3369V36.6411Z" fill="#BCCFA7"/>
<path d="M26.8013 17.2565H30.032V20.4872H26.8013V17.2565Z" fill="#BCCFA7"/>
<path d="M39.7222 30.1804H42.9529V33.4112H39.7222V30.1804Z" fill="#BCCFA7"/>
<path d="M39.7222 23.718H42.9529V26.9488H39.7222V23.718Z" fill="#BCCFA7"/>
<path d="M26.8013 23.718H30.032V26.9488H26.8013V23.718Z" fill="#BCCFA7"/>
<path d="M39.7222 36.6411H42.9529V39.8719H39.7222V36.6411Z" fill="#BCCFA7"/>
<path d="M26.8013 30.1804H30.032V33.4112H26.8013V30.1804Z" fill="#BCCFA7"/>
<path d="M39.7222 43.1033H42.9529V46.334H39.7222V43.1033Z" fill="#BCCFA7"/>
<path d="M26.8013 36.6411H30.032V39.8719H26.8013V36.6411Z" fill="#BCCFA7"/>
<path d="M50.1337 48.7035H48.5542V18.6932C48.5542 18.2743 48.3878 17.8726 48.0916 17.5763C47.7953 17.2801 47.3936 17.1137 46.9747 17.1137H35.9183V12.3753C35.9183 11.9564 35.7519 11.5546 35.4557 11.2584C35.1594 10.9622 34.7577 10.7958 34.3388 10.7958H15.3849C14.966 10.7958 14.5643 10.9622 14.2681 11.2584C13.9719 11.5546 13.8055 11.9564 13.8055 12.3753V48.7035H12.226C11.8071 48.7035 11.4053 48.8699 11.1091 49.1661C10.8129 49.4623 10.6465 49.864 10.6465 50.283C10.6465 50.7019 10.8129 51.1036 11.1091 51.3998C11.4053 51.696 11.8071 51.8624 12.226 51.8624H50.1337C50.5526 51.8624 50.9543 51.696 51.2505 51.3998C51.5467 51.1036 51.7132 50.7019 51.7132 50.283C51.7132 49.864 51.5467 49.4623 51.2505 49.1661C50.9543 48.8699 50.5526 48.7035 50.1337 48.7035ZM16.9644 13.9548H32.7593V43.965C32.7593 44.3839 32.9257 44.7857 33.2219 45.0819C33.5181 45.3781 33.9199 45.5445 34.3388 45.5445C34.7577 45.5445 35.1594 45.3781 35.4557 45.0819C35.7519 44.7857 35.9183 44.3839 35.9183 43.965V20.2727H45.3952V48.7035H29.6003V43.965C29.6003 43.5461 29.4339 43.1443 29.1377 42.8481C28.8415 42.5519 28.4397 42.3855 28.0208 42.3855H21.7029C21.284 42.3855 20.8822 42.5519 20.586 42.8481C20.2898 43.1443 20.1234 43.5461 20.1234 43.965V48.7035H16.9644V13.9548ZM26.4414 48.7035H23.2824V45.5445H26.4414V48.7035Z" fill="#BCCFA7"/>
</g>
<defs>
<clipPath id="clip0_136_45">
<rect width="42" height="42" fill="white" transform="translate(11 11)"/>
</clipPath>
</defs>
</svg>
