<svg width="23" height="23" viewBox="0 0 23 23" fill="none" xmlns="http://www.w3.org/2000/svg">
<path d="M11.4719 22.5C11.3974 22.5 11.3229 22.5 11.2479 22.4997C9.48414 22.5039 7.85449 22.4591 6.26966 22.3627C4.81666 22.2743 3.49035 21.7722 2.43391 20.9108C1.41454 20.0796 0.71843 18.9557 0.364966 17.5707C0.0573371 16.365 0.0410286 15.1814 0.0254069 14.0366C0.0140767 13.2152 0.00240335 12.2418 0 11.252C0.00240335 10.2581 0.0140767 9.28478 0.0254069 8.46338C0.0410286 7.31874 0.0573371 6.13513 0.364966 4.92921C0.71843 3.54424 1.41454 2.42037 2.43391 1.58918C3.49035 0.727783 4.81666 0.225672 6.26983 0.137266C7.85467 0.0409641 9.48465 -0.00401135 11.2521 0.000280201C13.0164 -0.00349636 14.6455 0.0409641 16.2303 0.137266C17.6833 0.225672 19.0096 0.727783 20.0661 1.58918C21.0856 2.42037 21.7816 3.54424 22.135 4.92921C22.4427 6.13496 22.459 7.31874 22.4746 8.46338C22.4859 9.28478 22.4978 10.2581 22.5 11.2479V11.252C22.4978 12.2418 22.4859 13.2152 22.4746 14.0366C22.459 15.1812 22.4428 16.3648 22.135 17.5707C21.7816 18.9557 21.0856 20.0796 20.0661 20.9108C19.0096 21.7722 17.6833 22.2743 16.2303 22.3627C14.7126 22.455 13.1535 22.5 11.4719 22.5ZM11.2479 20.7418C12.9829 20.746 14.576 20.7022 16.1236 20.6081C17.2222 20.5413 18.1748 20.1848 18.9552 19.5484C19.6766 18.9602 20.1734 18.1485 20.4317 17.1361C20.6879 16.1324 20.7026 15.0547 20.7169 14.0125C20.728 13.1966 20.7397 12.2302 20.7421 11.25C20.7397 10.2696 20.728 9.30332 20.7169 8.48741C20.7026 7.44525 20.6879 6.36756 20.4317 5.36368C20.1734 4.35122 19.6766 3.5396 18.9552 2.95132C18.1748 2.31514 17.2222 1.9586 16.1236 1.89182C14.576 1.79758 12.9829 1.75415 11.252 1.75793C9.51727 1.75381 7.92402 1.79758 6.37643 1.89182C5.27776 1.9586 4.32517 2.31514 3.54477 2.95132C2.82342 3.5396 2.32662 4.35122 2.06826 5.36368C1.81213 6.36756 1.79736 7.44508 1.78311 8.48741C1.77196 9.30401 1.76028 10.271 1.75788 11.252C1.76028 12.2288 1.77196 13.1959 1.78311 14.0125C1.79736 15.0547 1.81213 16.1324 2.06826 17.1361C2.32662 18.1485 2.82342 18.9602 3.54477 19.5484C4.32517 20.1846 5.27776 20.5412 6.37643 20.6079C7.92402 20.7022 9.51761 20.7461 11.2479 20.7418ZM11.206 16.7431C8.17706 16.7431 5.71259 14.2789 5.71259 11.25C5.71259 8.22099 8.17706 5.75679 11.206 5.75679C14.235 5.75679 16.6993 8.22099 16.6993 11.25C16.6993 14.2789 14.235 16.7431 11.206 16.7431ZM11.206 7.51461C9.1463 7.51461 7.47047 9.19037 7.47047 11.25C7.47047 13.3096 9.1463 14.9853 11.206 14.9853C13.2658 14.9853 14.9415 13.3096 14.9415 11.25C14.9415 9.19037 13.2658 7.51461 11.206 7.51461ZM17.3146 3.99897C16.5866 3.99897 15.9962 4.58915 15.9962 5.31733C15.9962 6.04552 16.5866 6.6357 17.3146 6.6357C18.0428 6.6357 18.633 6.04552 18.633 5.31733C18.633 4.58915 18.0428 3.99897 17.3146 3.99897Z" fill="white"/>
</svg>
