<svg width="19" height="19" viewBox="0 0 19 19" fill="none" xmlns="http://www.w3.org/2000/svg">
<path d="M18.4162 18.2497V11.8404C18.4162 8.69041 17.7381 6.28418 14.0631 6.28418C12.2913 6.28418 11.11 7.24667 10.6288 8.16542H10.585V6.56855H7.10693V18.2497H10.7382V12.4529C10.7382 10.9216 11.0225 9.45603 12.9038 9.45603C14.7631 9.45603 14.785 11.1841 14.785 12.5404V18.2279H18.4162V18.2497Z" fill="white"/>
<path d="M1.20068 6.56934H4.83191V18.2505H1.20068V6.56934Z" fill="white"/>
<path d="M3.01649 0.75C1.85712 0.75 0.916504 1.69062 0.916504 2.84999C0.916504 4.00935 1.85712 4.97185 3.01649 4.97185C4.17586 4.97185 5.11648 4.00935 5.11648 2.84999C5.11648 1.69062 4.17586 0.75 3.01649 0.75Z" fill="white"/>
</svg>
