<svg width="58" height="59" viewBox="0 0 58 59" fill="none" xmlns="http://www.w3.org/2000/svg">
<g clip-path="url(#clip0_136_66)">
<path d="M48.3593 27.3867V16.1452L38.5593 12.5813V27.3867H37.1593V10.5867H20.3593V27.3867H18.9593V18.223H17.5593V12.8776H14.7593V8.29578H13.3593V12.8776H10.5593V18.223H9.15928V27.3867H7.75928V48.7685H20.3593V50.2958H37.1593V48.7685H49.7593V27.3867H48.3593ZM11.9593 14.4049H16.1593V18.223H11.9593V14.4049ZM10.5593 19.7503H17.5593V27.3867H10.5593V19.7503ZM20.3593 47.2412H9.15928V28.914H20.3593V47.2412ZM30.1593 48.7685H27.3593V41.1321H30.1593V48.7685ZM35.7593 48.7685H31.5593V39.6049H25.9593V48.7685H21.7593V12.114H35.7593V48.7685ZM39.9593 14.7012L46.9593 17.2464V27.3867H45.5593V18.223H44.1593V27.3867H42.7593V18.223H41.3593V27.3867H39.9593V14.7012ZM44.1593 47.2412H41.3593V44.1867H44.1593V47.2412ZM48.3593 47.2412H45.5593V42.6594H39.9593V47.2412H37.1593V28.914H48.3593V47.2412Z" fill="#BCCFA7"/>
<path d="M18.9591 30.4387H10.5591V31.966H18.9591V30.4387Z" fill="#BCCFA7"/>
<path d="M18.9591 33.4935H10.5591V35.0208H18.9591V33.4935Z" fill="#BCCFA7"/>
<path d="M18.9591 36.5492H10.5591V38.0765H18.9591V36.5492Z" fill="#BCCFA7"/>
<path d="M18.9591 39.6025H10.5591V41.1298H18.9591V39.6025Z" fill="#BCCFA7"/>
<path d="M23.8594 15.1682V19.75H28.0594V15.1682H23.8594ZM26.6594 18.2228H25.2594V16.6955H26.6594V18.2228Z" fill="#BCCFA7"/>
<path d="M29.459 15.1682V19.75H33.659V15.1682H29.459ZM32.259 18.2228H30.859V16.6955H32.259V18.2228Z" fill="#BCCFA7"/>
<path d="M23.8594 21.2765V25.8583H28.0594V21.2765H23.8594ZM26.6594 24.331H25.2594V22.8038H26.6594V24.331Z" fill="#BCCFA7"/>
<path d="M29.459 21.2765V25.8583H33.659V21.2765H29.459ZM32.259 24.331H30.859V22.8038H32.259V24.331Z" fill="#BCCFA7"/>
<path d="M23.8594 27.3854V31.9672H28.0594V27.3854H23.8594ZM26.6594 30.4399H25.2594V28.9126H26.6594V30.4399Z" fill="#BCCFA7"/>
<path d="M29.459 27.3854V31.9672H33.659V27.3854H29.459ZM32.259 30.4399H30.859V28.9126H32.259V30.4399Z" fill="#BCCFA7"/>
<path d="M23.8594 33.4935V38.0753H28.0594V33.4935H23.8594ZM26.6594 36.5481H25.2594V35.0208H26.6594V36.5481Z" fill="#BCCFA7"/>
<path d="M29.459 33.4935V38.0753H33.659V33.4935H29.459ZM32.259 36.5481H30.859V35.0208H32.259V36.5481Z" fill="#BCCFA7"/>
<path d="M39.9596 30.4387H38.5596V31.966H39.9596V30.4387Z" fill="#BCCFA7"/>
<path d="M44.1589 30.4387H41.3589V31.966H44.1589V30.4387Z" fill="#BCCFA7"/>
<path d="M46.9591 30.4387H45.5591V31.966H46.9591V30.4387Z" fill="#BCCFA7"/>
<path d="M39.9596 33.4935H38.5596V35.0208H39.9596V33.4935Z" fill="#BCCFA7"/>
<path d="M44.1589 33.4935H41.3589V35.0208H44.1589V33.4935Z" fill="#BCCFA7"/>
<path d="M46.9591 33.4935H45.5591V35.0208H46.9591V33.4935Z" fill="#BCCFA7"/>
<path d="M39.9596 36.5491H38.5596V38.0763H39.9596V36.5491Z" fill="#BCCFA7"/>
<path d="M44.1589 36.5491H41.3589V38.0763H44.1589V36.5491Z" fill="#BCCFA7"/>
<path d="M46.9591 36.5492H45.5591V38.0765H46.9591V36.5492Z" fill="#BCCFA7"/>
<path d="M39.9596 39.6025H38.5596V41.1298H39.9596V39.6025Z" fill="#BCCFA7"/>
<path d="M44.1589 39.6025H41.3589V41.1298H44.1589V39.6025Z" fill="#BCCFA7"/>
<path d="M46.9591 39.6025H45.5591V41.1298H46.9591V39.6025Z" fill="#BCCFA7"/>
</g>
<defs>
<clipPath id="clip0_136_66">
<rect width="42" height="42" fill="white" transform="translate(8 8.5)"/>
</clipPath>
</defs>
</svg>
