<svg width="67" height="67" viewBox="0 0 67 67" fill="none" xmlns="http://www.w3.org/2000/svg">
<g clip-path="url(#clip0_423_12)">
<path d="M57.8803 49.529L47.426 37.6875H51.4342C52.6132 37.6875 53.6562 37.0332 54.1534 35.9785C54.6507 34.9264 54.4871 33.7199 53.7242 32.8313L43.5002 20.9375H47.2807C48.4715 20.9375 49.5446 20.2374 50.0104 19.1565C50.4711 18.0926 50.2538 16.8547 49.4556 16.0054L35.0257 0.632056C34.2366 -0.211987 32.7645 -0.211987 31.9741 0.632056L17.5429 16.0054C16.7447 16.8547 16.5288 18.0926 16.9881 19.1565C17.4539 20.2374 18.5283 20.9375 19.7191 20.9375H23.4996L13.2743 32.8339C12.514 33.7212 12.3504 34.9264 12.8464 35.9798C13.3436 37.0332 14.3853 37.6875 15.5656 37.6875H19.5739L9.1195 49.529C8.33434 50.4175 8.15637 51.6345 8.65364 52.7036C9.14436 53.757 10.2239 54.4375 11.403 54.4375H29.3124V57.637L25.3487 63.9706C24.6525 65.363 25.6654 67.0013 27.2213 67.0013H39.7785C41.3345 67.0013 42.3473 65.363 41.6511 63.9706L37.6874 57.637V54.4375H55.5968C56.7759 54.4375 57.8555 53.757 58.3462 52.7036C58.8434 51.6345 58.6655 50.4175 57.8803 49.529Z" fill="white"/>
</g>
<defs>
<clipPath id="clip0_423_12">
<rect width="67" height="67" fill="white"/>
</clipPath>
</defs>
</svg>
