<svg width="19" height="17" viewBox="0 0 19 17" fill="none" xmlns="http://www.w3.org/2000/svg">
<path d="M12.4718 14.0692C12.4718 14.0692 17.4236 10.5033 17.0898 4.01635C17.0898 4.01635 18.7589 2.55093 19 1.90615C19 1.90615 17.5719 2.53138 16.8857 2.45323C16.8857 2.45323 18.5178 1.20272 18.4251 0.186712C18.4251 0.186712 16.8301 1.12456 16.0512 1.20271C16.0512 1.20271 13.1209 -1.39596 10.4132 1.0464C10.4132 1.0464 9.07789 2.17966 9.33755 4.99329C9.33755 4.99329 5.26035 4.99329 1.36277 0.733782C1.36277 0.733782 -0.195098 4.13359 2.54969 6.14609C2.54969 6.14609 1.67805 6.36101 0.787831 5.57946C0.787831 5.57946 0.732204 8.86202 3.94064 9.74126C3.94064 9.74126 2.97627 10.0343 2.23441 9.83897C2.23441 9.83897 2.88353 12.4767 5.79523 12.6135C5.79523 12.6135 3.95919 14.7237 0.25 14.3329C0.249993 14.3329 5.15542 18.8171 12.4718 14.0692Z" fill="white"/>
</svg>
